# xmcd CD database file
# Copyright (C) 1995-1998 Ti Kan
#
# Track frame offsets:
#	182
#	15187
#	37817
#	50687
#	78917
#	92882
#	109927
#	127112
#	135937
#	151237
#	171580
#	191925
#	204207
#	220707
#	240957
#	256367
#
# Disc length: 3561 seconds
#
# Revision: 1
# Processed by: cddbd v1.4PL0 Copyright (c) Steve Scherf et al.
# Submitted via: CDex 1.30Release
#
DISCID=ce0de710
DTITLE=Brownie McGhee, Sonny Terry with Earl Hooker - I Couldn't Believe My 
DTITLE=Eyes plus...
DYEAR=1973
DGENRE=Blues
TTITLE0=Black Cat Bone
TTITLE1=Brownie's New Blues
TTITLE2=Poor Man Blues
TTITLE3=Tell Me Why
TTITLE4=My Baby's So Fine
TTITLE5=You Just Usin' Me For A Convenience
TTITLE6=Hole In The Wall
TTITLE7=Long Way From Home
TTITLE8=Don't Wait For Me
TTITLE9=I'm In Love With You Baby
TTITLE10=Parcel Post Blues
TTITLE11=When I Was Drinkin'
TTITLE12=I Couldn't Believe My Eyes
TTITLE13=Life Is A Gamble
TTITLE14=Don't Mistreat Me
TTITLE15=Rock Island Line
EXTD=YEAR: 1973 ID3G:   0
EXTT0=
EXTT1=
EXTT2=
EXTT3=
EXTT4=
EXTT5=
EXTT6=
EXTT7=
EXTT8=
EXTT9=
EXTT10=
EXTT11=
EXTT12=
EXTT13=
EXTT14=
EXTT15=
PLAYORDER=
